<svg width="125" height="29" viewBox="0 0 125 29" fill="none" xmlns="http://www.w3.org/2000/svg">
<g filter="url(#filter0_d_4_39)">
<path d="M10.7629 20.208C8.93891 20.208 7.49891 19.888 6.44291 19.248C5.40291 18.592 4.88291 17.736 4.88291 16.68C4.88291 15.512 5.45891 14.416 6.61091 13.392C7.84291 12.304 9.45891 11.568 11.4589 11.184C11.7309 11.136 12.0189 11.096 12.3229 11.064C12.6269 11.032 12.9309 11.016 13.2349 11.016C15.0909 11.016 16.3469 11.464 17.0029 12.36C17.0669 12.44 17.0989 12.544 17.0989 12.672C17.0989 12.928 17.0269 12.968 16.8829 12.792C16.3069 11.976 15.0509 11.568 13.1149 11.568C12.5069 11.568 11.9629 11.616 11.4829 11.712C9.80291 12.032 8.46691 12.664 7.47491 13.608C6.53091 14.504 6.05891 15.456 6.05891 16.464C6.05891 17.424 6.49091 18.192 7.35491 18.768C8.20291 19.344 9.35491 19.632 10.8109 19.632C12.1869 19.632 13.4589 19.464 14.6269 19.128C15.7949 18.808 16.8669 18.352 17.8429 17.76C19.4429 16.784 20.2429 15.488 20.2429 13.872C20.2429 12.016 19.0829 10.344 16.7629 8.856C16.1709 8.472 15.6749 8.136 15.2749 7.848C14.8749 7.544 14.5629 7.288 14.3389 7.08C13.4909 6.264 13.0669 5.4 13.0669 4.488C13.0669 4.248 13.0909 4.024 13.1389 3.816C13.3629 2.776 14.0589 1.936 15.2269 1.296C16.2989 0.703999 17.4589 0.407999 18.7069 0.407999C20.1309 0.407999 21.2109 0.655999 21.9469 1.152C22.4749 1.504 22.7389 2.04 22.7389 2.76C22.7389 3.224 22.6029 3.656 22.3309 4.056C22.0749 4.44 21.7389 4.632 21.3229 4.632C21.0189 4.632 20.7469 4.512 20.5069 4.272C20.2989 4.064 20.1949 3.816 20.1949 3.528C20.1949 2.76 20.5709 2.376 21.3229 2.376C21.7709 2.376 22.0429 2.52 22.1389 2.808C22.2189 2.376 22.0509 2 21.6349 1.68C20.9789 1.168 20.1229 0.912 19.0669 0.912C17.9629 0.912 16.9549 1.224 16.0429 1.848C15.0669 2.504 14.5789 3.264 14.5789 4.128C14.5789 5.248 15.6029 6.4 17.6509 7.584C20.5149 9.216 21.9469 11.104 21.9469 13.248C21.9469 14.192 21.6429 15.104 21.0349 15.984C20.4269 16.88 19.6189 17.616 18.6109 18.192C16.3069 19.536 13.6909 20.208 10.7629 20.208ZM24.9073 18C23.8673 18 23.3473 17.432 23.3473 16.296C23.3473 16.072 23.3633 15.84 23.3953 15.6C23.4433 15.36 23.5153 15.12 23.6113 14.88C24.4593 12.64 25.1793 10.816 25.7713 9.408H24.2113L24.4993 8.88H25.9873L26.5633 7.2C26.7713 6.608 26.9473 6.256 27.0913 6.144C27.2033 6.064 27.4593 6.024 27.8593 6.024L28.8913 6.048C28.5713 6.32 28.3313 6.648 28.1713 7.032L27.3793 8.88H29.2033L28.9153 9.408H27.1633C27.0513 9.664 26.9393 9.92 26.8273 10.176C26.7313 10.432 26.6193 10.696 26.4913 10.968C26.1553 11.704 25.8673 12.4 25.6273 13.056C25.3393 13.808 25.1073 14.456 24.9313 15C24.7713 15.544 24.6753 15.976 24.6433 16.296C24.5793 17.08 24.7873 17.472 25.2673 17.472C25.7153 17.472 26.2593 16.992 26.8993 16.032L27.1873 16.368C26.4193 17.456 25.6593 18 24.9073 18ZM33.8293 18.048C33.4773 18.048 33.1893 17.944 32.9653 17.736C32.6453 17.464 32.4853 17.008 32.4853 16.368C32.4853 15.952 32.5573 15.48 32.7013 14.952C32.1573 15.864 31.5893 16.608 30.9973 17.184C30.3893 17.744 29.8453 18.024 29.3653 18.024C28.9493 18.024 28.6213 17.84 28.3813 17.472C28.1253 17.12 27.9973 16.632 27.9973 16.008C27.9973 14.488 28.6773 12.92 30.0373 11.304C30.2613 11.032 30.5173 10.784 30.8053 10.56C31.0933 10.336 31.4053 10.136 31.7413 9.96C32.4293 9.608 33.0933 9.432 33.7333 9.432C34.5173 9.432 35.1413 9.688 35.6053 10.2C35.7173 10.312 35.7733 10.44 35.7733 10.584C35.7733 10.856 35.6293 10.96 35.3413 10.896C35.1813 10.32 34.8053 10.032 34.2133 10.032C33.5413 10.032 32.7493 10.504 31.8373 11.448C31.5173 11.8 31.2133 12.168 30.9253 12.552C30.6373 12.92 30.3653 13.312 30.1093 13.728C29.4213 14.88 29.0773 15.816 29.0773 16.536C29.0773 17.08 29.2853 17.352 29.7013 17.352C30.1653 17.352 30.7013 17 31.3093 16.296C31.6453 15.912 31.9893 15.44 32.3413 14.88C32.6933 14.32 33.0613 13.672 33.4453 12.936C33.6053 12.632 33.7493 12.384 33.8773 12.192C34.0053 12 34.1093 11.856 34.1893 11.76C34.4453 11.504 34.7493 11.384 35.1013 11.4L35.5813 11.472C35.7893 11.52 35.9653 11.528 36.1093 11.496C35.9653 11.64 35.7893 11.872 35.5813 12.192C35.3893 12.496 35.1653 12.896 34.9093 13.392C34.6373 13.92 34.4133 14.4 34.2373 14.832C34.0613 15.264 33.9413 15.648 33.8773 15.984C33.8453 16.144 33.8213 16.296 33.8053 16.44C33.7893 16.568 33.7813 16.688 33.7813 16.8C33.7813 17.216 33.8933 17.424 34.1173 17.424C34.4373 17.424 34.8773 17.072 35.4373 16.368L35.5333 16.248L35.8693 16.464L35.7733 16.608C35.1173 17.568 34.4693 18.048 33.8293 18.048ZM36.1189 18.168C36.4389 17.384 36.8389 16.416 37.3189 15.264C37.7989 14.112 38.3829 12.784 39.0709 11.28C39.2149 10.96 39.3509 10.696 39.4789 10.488C39.6069 10.28 39.7269 10.12 39.8389 10.008C40.0629 9.784 40.3509 9.672 40.7029 9.672C40.7349 9.672 40.7909 9.672 40.8709 9.672C40.9509 9.672 41.0629 9.688 41.2069 9.72C41.4309 9.736 41.5989 9.736 41.7109 9.72C41.1189 10.072 40.2309 11.624 39.0469 14.376C39.2389 14.104 39.4949 13.808 39.8149 13.488C40.1509 13.152 40.5429 12.784 40.9909 12.384C41.2789 12.112 41.5989 11.856 41.9509 11.616C42.3029 11.36 42.6869 11.12 43.1029 10.896C44.0469 10.368 44.7429 10.104 45.1909 10.104C45.3029 10.104 45.3829 10.112 45.4309 10.128C45.1749 10.576 44.9349 11.008 44.7109 11.424C44.5029 11.84 44.3029 12.232 44.1109 12.6C43.1829 14.392 42.6629 15.632 42.5509 16.32C42.5349 16.432 42.5189 16.536 42.5029 16.632C42.5029 16.728 42.5029 16.816 42.5029 16.896C42.5029 17.312 42.6549 17.52 42.9589 17.52C43.4549 17.52 44.0469 17.016 44.7349 16.008L45.0709 16.248C44.2549 17.48 43.4309 18.096 42.5989 18.096C41.5909 18.096 41.0869 17.576 41.0869 16.536C41.0869 15.688 41.6069 14.432 42.6469 12.768C42.8069 12.512 42.8869 12.296 42.8869 12.12C42.8869 11.928 42.7989 11.832 42.6229 11.832C42.4469 11.832 42.2149 11.928 41.9269 12.12C41.6549 12.296 41.3269 12.56 40.9429 12.912C40.3349 13.472 39.7669 14.144 39.2389 14.928C38.7109 15.696 38.2309 16.576 37.7989 17.568C37.7029 17.808 37.4549 17.952 37.0549 18C36.5429 18.048 36.2309 18.104 36.1189 18.168ZM48.2372 18.096C46.6372 18.096 45.8372 17.296 45.8372 15.696C45.8372 14.352 46.3012 13.024 47.2292 11.712C48.2372 10.272 49.3972 9.552 50.7092 9.552C51.9252 9.552 52.4692 10.104 52.3412 11.208C52.3252 11.496 52.1732 11.808 51.8852 12.144C51.6132 12.464 51.3492 12.624 51.0932 12.624C50.9492 12.624 50.8292 12.576 50.7332 12.48C51.1332 12.08 51.3812 11.672 51.4772 11.256C51.5092 11.144 51.5332 11.048 51.5492 10.968C51.5652 10.872 51.5732 10.784 51.5732 10.704C51.5732 10.288 51.3812 10.08 50.9972 10.08C50.4372 10.08 49.6532 10.76 48.6452 12.12C47.6852 13.416 47.2052 14.68 47.2052 15.912C47.2052 17.08 47.6532 17.664 48.5492 17.664C49.4132 17.664 50.2532 17.12 51.0692 16.032L51.2132 15.84L51.5492 16.032L51.3812 16.272C50.5332 17.488 49.4852 18.096 48.2372 18.096ZM54.418 18.096C53.794 18.096 53.258 17.896 52.81 17.496C52.57 17.272 52.394 17.016 52.282 16.728C52.186 16.424 52.138 16.08 52.138 15.696C52.138 14.224 52.746 12.76 53.962 11.304C54.986 10.072 56.05 9.456 57.154 9.456C57.522 9.456 57.834 9.552 58.09 9.744C58.362 9.968 58.498 10.256 58.498 10.608C58.498 11.488 57.914 12.368 56.746 13.248C56.378 13.52 55.89 13.76 55.282 13.968C54.61 14.192 54.122 14.304 53.818 14.304C53.594 14.848 53.482 15.424 53.482 16.032C53.482 17.072 53.866 17.592 54.634 17.592C55.642 17.592 56.586 16.936 57.466 15.624L57.562 15.48L57.97 15.648L57.898 15.792C57.498 16.592 56.994 17.176 56.386 17.544C55.778 17.912 55.122 18.096 54.418 18.096ZM53.962 13.896C54.234 13.896 54.61 13.808 55.09 13.632C55.362 13.52 55.618 13.4 55.858 13.272C56.114 13.144 56.338 13 56.53 12.84C57.41 12.104 57.85 11.328 57.85 10.512C57.85 10.16 57.722 9.984 57.466 9.984C57.018 9.984 56.338 10.536 55.426 11.64C54.962 12.2 54.474 12.952 53.962 13.896ZM69.1753 19.8C67.5913 19.8 66.3913 19.32 65.5753 18.36C64.8713 17.544 64.5193 16.432 64.5193 15.024C64.5193 14.08 64.6713 13.12 64.9753 12.144C65.2793 11.152 65.7193 10.16 66.2953 9.168C65.3513 8.848 64.5433 8.328 63.8713 7.608C63.1833 6.856 62.8393 6.032 62.8393 5.136C62.8393 4.096 63.3113 3.312 64.2553 2.784C65.0073 2.368 65.8873 2.16 66.8953 2.16C68.6553 2.16 70.1913 2.728 71.5033 3.864C73.8873 2.376 76.2633 1.632 78.6313 1.632C80.8073 1.632 81.8953 2.208 81.8953 3.36C81.8953 4.48 81.0073 5.688 79.2313 6.984C76.7353 8.808 73.6073 9.72 69.8473 9.72C69.5913 9.72 69.3353 9.712 69.0793 9.696C68.8393 9.68 68.6073 9.656 68.3833 9.624C67.0553 11.752 66.3913 13.72 66.3913 15.528C66.3913 16.568 66.6153 17.408 67.0633 18.048C67.6393 18.88 68.5113 19.296 69.6793 19.296C71.8073 19.296 73.9113 18.048 75.9913 15.552C77.0473 14.272 77.5753 13.152 77.5753 12.192C77.5753 11.312 77.1193 10.872 76.2073 10.872C75.1993 10.872 73.9353 11.424 72.4153 12.528C71.0713 13.52 70.0793 14.52 69.4393 15.528C69.3913 15.608 69.3353 15.648 69.2713 15.648C69.1593 15.648 69.1033 15.568 69.1033 15.408C69.1033 15.344 69.1113 15.304 69.1273 15.288C69.6233 14.184 70.5753 13.096 71.9833 12.024C73.4233 10.936 74.7193 10.392 75.8713 10.392C76.6393 10.392 77.2233 10.632 77.6233 11.112C77.9913 11.576 78.1753 12.136 78.1753 12.792C78.1753 13.336 78.0713 13.896 77.8633 14.472C77.6553 15.048 77.3193 15.616 76.8553 16.176C75.9753 17.296 74.8313 18.176 73.4233 18.816C71.9833 19.472 70.5673 19.8 69.1753 19.8ZM69.8953 9.12C70.7113 9.12 71.5353 9.048 72.3673 8.904C74.6553 8.472 76.8153 7.52 78.8473 6.048C80.2073 5.072 80.8873 4.088 80.8873 3.096C80.8873 2.44 80.3433 2.112 79.2553 2.112C77.1433 2.112 74.9033 3.064 72.5353 4.968C72.6793 5.176 72.8153 5.384 72.9433 5.592C73.0713 5.8 73.1913 6.016 73.3033 6.24C73.3673 6.352 73.3353 6.424 73.2073 6.456H73.1353C73.0073 6.456 72.9193 6.408 72.8713 6.312C72.7913 6.2 72.6873 6.064 72.5593 5.904C72.4313 5.728 72.2793 5.536 72.1033 5.328C70.8073 6.448 69.6953 7.688 68.7673 9.048C69.1513 9.096 69.5273 9.12 69.8953 9.12ZM66.6793 8.544C67.7833 6.848 69.2073 5.408 70.9513 4.224C69.5753 3.136 68.1273 2.592 66.6073 2.592C65.8553 2.592 65.2073 2.776 64.6633 3.144C64.0233 3.592 63.7033 4.24 63.7033 5.088C63.7033 6.656 64.6953 7.808 66.6793 8.544ZM81.145 17.976C80.121 17.976 79.609 17.496 79.609 16.536C79.609 16.2 79.705 15.752 79.897 15.192C80.089 14.616 80.361 13.936 80.713 13.152L82.033 10.248C82.177 9.912 82.489 9.744 82.969 9.744H84.409C83.849 10.16 83.337 10.832 82.873 11.76C82.697 12.112 82.481 12.552 82.225 13.08C81.985 13.592 81.705 14.184 81.385 14.856C81.081 15.48 80.929 16.04 80.929 16.536C80.929 17.048 81.105 17.304 81.457 17.304C81.841 17.304 82.297 17 82.825 16.392C83.705 15.368 84.889 13.32 86.377 10.248C86.553 9.912 86.857 9.744 87.289 9.744H88.585C88.057 10.176 87.505 10.968 86.929 12.12C86.129 13.736 85.649 14.968 85.489 15.816C85.473 15.912 85.457 16 85.441 16.08C85.441 16.16 85.441 16.24 85.441 16.32C85.441 16.944 85.657 17.256 86.089 17.256C86.553 17.256 87.097 16.8 87.721 15.888L88.081 16.056C87.217 17.336 86.361 17.976 85.513 17.976C84.617 17.976 84.169 17.408 84.169 16.272C84.169 15.84 84.249 15.384 84.409 14.904C83.225 16.952 82.137 17.976 81.145 17.976ZM89.2335 18C88.7695 18 88.5375 17.768 88.5375 17.304C88.5375 17.016 88.6335 16.624 88.8255 16.128L93.4815 4.224C93.5135 4.176 93.5295 4.128 93.5295 4.08C93.5295 4.032 93.5295 3.992 93.5295 3.96C93.5295 3.72 93.4335 3.472 93.2415 3.216H94.5375C94.9855 3.216 95.2095 3.32 95.2095 3.528C95.2095 3.624 95.1615 3.792 95.0655 4.032L90.4095 15.888C90.2015 16.4 90.0975 16.856 90.0975 17.256C90.0975 17.624 90.2095 17.872 90.4335 18H89.2335ZM94.8448 18C93.8048 18 93.2848 17.432 93.2848 16.296C93.2848 16.072 93.3008 15.84 93.3328 15.6C93.3808 15.36 93.4528 15.12 93.5488 14.88C94.3968 12.64 95.1168 10.816 95.7088 9.408H94.1488L94.4368 8.88H95.9248L96.5008 7.2C96.7088 6.608 96.8848 6.256 97.0288 6.144C97.1408 6.064 97.3968 6.024 97.7968 6.024L98.8288 6.048C98.5088 6.32 98.2688 6.648 98.1088 7.032L97.3168 8.88H99.1408L98.8528 9.408H97.1008C96.9888 9.664 96.8768 9.92 96.7648 10.176C96.6688 10.432 96.5568 10.696 96.4288 10.968C96.0928 11.704 95.8048 12.4 95.5648 13.056C95.2768 13.808 95.0448 14.456 94.8688 15C94.7088 15.544 94.6128 15.976 94.5808 16.296C94.5168 17.08 94.7248 17.472 95.2048 17.472C95.6528 17.472 96.1968 16.992 96.8368 16.032L97.1248 16.368C96.3568 17.456 95.5968 18 94.8448 18ZM99.5668 17.976C98.5428 17.976 98.0308 17.496 98.0308 16.536C98.0308 16.2 98.1268 15.752 98.3188 15.192C98.5108 14.616 98.7828 13.936 99.1348 13.152L100.455 10.248C100.599 9.912 100.911 9.744 101.391 9.744H102.831C102.271 10.16 101.759 10.832 101.295 11.76C101.119 12.112 100.903 12.552 100.647 13.08C100.407 13.592 100.127 14.184 99.8068 14.856C99.5028 15.48 99.3508 16.04 99.3508 16.536C99.3508 17.048 99.5268 17.304 99.8788 17.304C100.263 17.304 100.719 17 101.247 16.392C102.127 15.368 103.311 13.32 104.799 10.248C104.975 9.912 105.279 9.744 105.711 9.744H107.007C106.479 10.176 105.927 10.968 105.351 12.12C104.551 13.736 104.071 14.968 103.911 15.816C103.895 15.912 103.879 16 103.863 16.08C103.863 16.16 103.863 16.24 103.863 16.32C103.863 16.944 104.079 17.256 104.511 17.256C104.975 17.256 105.519 16.8 106.143 15.888L106.503 16.056C105.639 17.336 104.783 17.976 103.935 17.976C103.039 17.976 102.591 17.408 102.591 16.272C102.591 15.84 102.671 15.384 102.831 14.904C101.647 16.952 100.559 17.976 99.5668 17.976ZM106.431 18.168C106.735 17.4 107.135 16.44 107.631 15.288C108.143 14.136 108.719 12.824 109.359 11.352C109.487 11.032 109.607 10.776 109.719 10.584C109.847 10.392 109.959 10.24 110.055 10.128C110.263 9.888 110.543 9.792 110.895 9.84L111.399 9.912C111.511 9.928 111.607 9.944 111.687 9.96C111.783 9.96 111.863 9.952 111.927 9.936C111.607 10.096 111.231 10.552 110.799 11.304C110.383 12.04 109.919 13.048 109.407 14.328C109.583 14.104 109.807 13.808 110.079 13.44C110.351 13.056 110.695 12.616 111.111 12.12C111.575 11.576 112.055 11.072 112.551 10.608C113.047 10.144 113.527 9.912 113.991 9.912C114.359 9.912 114.623 10.032 114.783 10.272C114.943 10.512 115.023 10.784 115.023 11.088C115.023 11.456 114.879 11.784 114.591 12.072C114.303 12.36 114.023 12.504 113.751 12.504C113.639 12.504 113.519 12.48 113.391 12.432C113.279 12.384 113.223 12.312 113.223 12.216C113.223 12.136 113.239 12.064 113.271 12C113.303 11.92 113.319 11.832 113.319 11.736C113.319 11.496 113.207 11.376 112.983 11.376C112.903 11.376 112.791 11.4 112.647 11.448C112.519 11.48 112.343 11.608 112.119 11.832C111.671 12.248 111.183 12.752 110.655 13.344C110.143 13.92 109.655 14.568 109.191 15.288C108.743 16.008 108.375 16.8 108.087 17.664C108.007 17.904 107.767 18.032 107.367 18.048C106.823 18.08 106.511 18.12 106.431 18.168ZM116.27 18.096C115.646 18.096 115.11 17.896 114.662 17.496C114.422 17.272 114.246 17.016 114.134 16.728C114.038 16.424 113.99 16.08 113.99 15.696C113.99 14.224 114.598 12.76 115.814 11.304C116.838 10.072 117.902 9.456 119.006 9.456C119.374 9.456 119.686 9.552 119.942 9.744C120.214 9.968 120.35 10.256 120.35 10.608C120.35 11.488 119.766 12.368 118.598 13.248C118.23 13.52 117.742 13.76 117.134 13.968C116.462 14.192 115.974 14.304 115.67 14.304C115.446 14.848 115.334 15.424 115.334 16.032C115.334 17.072 115.718 17.592 116.486 17.592C117.494 17.592 118.438 16.936 119.318 15.624L119.414 15.48L119.822 15.648L119.75 15.792C119.35 16.592 118.846 17.176 118.238 17.544C117.63 17.912 116.974 18.096 116.27 18.096ZM115.814 13.896C116.086 13.896 116.462 13.808 116.942 13.632C117.214 13.52 117.47 13.4 117.71 13.272C117.966 13.144 118.19 13 118.382 12.84C119.262 12.104 119.702 11.328 119.702 10.512C119.702 10.16 119.574 9.984 119.318 9.984C118.87 9.984 118.19 10.536 117.278 11.64C116.814 12.2 116.326 12.952 115.814 13.896Z" fill="white"/>
</g>
<defs>
<filter id="filter0_d_4_39" x="0.882812" y="0.40802" width="123.467" height="27.8" filterUnits="userSpaceOnUse" color-interpolation-filters="sRGB">
<feFlood flood-opacity="0" result="BackgroundImageFix"/>
<feColorMatrix in="SourceAlpha" type="matrix" values="0 0 0 0 0 0 0 0 0 0 0 0 0 0 0 0 0 0 127 0" result="hardAlpha"/>
<feOffset dy="4"/>
<feGaussianBlur stdDeviation="2"/>
<feComposite in2="hardAlpha" operator="out"/>
<feColorMatrix type="matrix" values="0 0 0 0 0 0 0 0 0 0 0 0 0 0 0 0 0 0 0.25 0"/>
<feBlend mode="normal" in2="BackgroundImageFix" result="effect1_dropShadow_4_39"/>
<feBlend mode="normal" in="SourceGraphic" in2="effect1_dropShadow_4_39" result="shape"/>
</filter>
</defs>
</svg>
